<svg xmlns="http://www.w3.org/2000/svg" viewBox="0 0 1280 720">
  <defs>
    <linearGradient id="bg" x1="0" y1="0" x2="1" y2="1">
      <stop offset="0%" stop-color="#1d4ed8"/>
      <stop offset="100%" stop-color="#0c1d3e"/>
    </linearGradient>
    <radialGradient id="glow" cx="0.85" cy="0.18" r="0.6">
      <stop offset="0%" stop-color="#60a5fa" stop-opacity="0.38"/>
      <stop offset="50%" stop-color="#60a5fa" stop-opacity="0.08"/>
      <stop offset="100%" stop-color="#60a5fa" stop-opacity="0"/>
    </radialGradient>
    <radialGradient id="glow2" cx="0.05" cy="0.85" r="0.4">
      <stop offset="0%" stop-color="#60a5fa" stop-opacity="0.18"/>
      <stop offset="100%" stop-color="#60a5fa" stop-opacity="0"/>
    </radialGradient>
    <pattern id="grid" width="48" height="48" patternUnits="userSpaceOnUse">
      <path d="M48 0 L0 0 0 48" stroke="rgba(255,255,255,0.05)" stroke-width="1" fill="none"/>
    </pattern>
    <pattern id="dots" width="22" height="22" patternUnits="userSpaceOnUse">
      <circle cx="11" cy="11" r="1.2" fill="rgba(255,255,255,0.045)"/>
    </pattern>
    <filter id="softShadow" x="-20%" y="-20%" width="140%" height="140%">
      <feDropShadow dx="0" dy="2" stdDeviation="6" flood-color="#000000" flood-opacity="0.45"/>
    </filter>
    <filter id="textShadow" x="-10%" y="-10%" width="120%" height="120%">
      <feDropShadow dx="0" dy="1" stdDeviation="2" flood-color="#000000" flood-opacity="0.35"/>
    </filter>
  </defs>

  <!-- layered background -->
  <rect width="1280" height="720" fill="url(#bg)"/>
  <rect width="1280" height="720" fill="url(#dots)"/>
  <rect width="1280" height="720" fill="url(#grid)" opacity="0.7"/>
  <rect width="1280" height="720" fill="url(#glow)"/>
  <rect width="1280" height="720" fill="url(#glow2)"/>

  <!-- card border -->
  <rect x="32" y="32" width="1216" height="656" rx="20" fill="none" stroke="rgba(255,255,255,0.09)" stroke-width="1.5"/>

  <!-- top: brand bar + identity row -->
  <rect x="80" y="92" width="80" height="6" fill="#fbbf24" rx="3"/>
  <text x="80" y="148" font-family="-apple-system, BlinkMacSystemFont, 'Segoe UI', Roboto, sans-serif"
        font-size="22" font-weight="800" fill="#ffffff" letter-spacing="3.6">MATHSTUB</text>
  <text x="232" y="148" font-family="-apple-system, BlinkMacSystemFont, 'Segoe UI', Roboto, sans-serif"
        font-size="22" font-weight="500" fill="rgba(255,255,255,0.78)" letter-spacing="3.6">·  NOTION TOOLKIT</text>

  <!-- price chip (top-right) — slightly larger, glow halo -->
  <g transform="translate(1042, 86)" filter="url(#softShadow)">
    <rect width="158" height="64" rx="32" fill="rgba(255,255,255,0.14)" stroke="#60a5fa" stroke-width="2"/>
    <text x="79" y="42" text-anchor="middle"
          font-family="-apple-system, BlinkMacSystemFont, 'Segoe UI', Roboto, sans-serif"
          font-size="28" font-weight="800" fill="#ffffff">$29</text>
  </g>

  <!-- category badge (just below brand) -->
  <g transform="translate(80, 198)">
    <rect width="212" height="38" rx="19" fill="rgba(255,255,255,0.08)" stroke="#60a5fa" stroke-width="1.5"/>
    <circle cx="20" cy="19" r="4" fill="#60a5fa"/>
    <text x="32" y="25"
          font-family="-apple-system, BlinkMacSystemFont, 'Segoe UI', Roboto, sans-serif"
          font-size="13" font-weight="800" letter-spacing="1.6" fill="#ffffff">DECISION TRACKER</text>
  </g>

  <!-- kicker -->
  <text x="80" y="290" font-family="-apple-system, BlinkMacSystemFont, 'Segoe UI', Roboto, sans-serif"
        font-size="22" font-weight="500" fill="rgba(255,255,255,0.78)">4-year tax projection · RSU basis fix · CPA brief</text>

  <!-- title -->
  <text x="80" y="362" font-family="-apple-system, BlinkMacSystemFont, 'Segoe UI', Roboto, sans-serif"
        font-size="78" font-weight="800" fill="#ffffff" filter="url(#textShadow)">
    <tspan x="80" dy="0">Equity Comp</tspan><tspan x="80" dy="92">Decision Tracker</tspan>
  </text>

  <!-- subtitle -->
  <text x="80" y="608" font-family="-apple-system, BlinkMacSystemFont, 'Segoe UI', Roboto, sans-serif"
        font-size="24" font-weight="400" fill="rgba(255,255,255,0.78)">
    <tspan x="80" dy="0">RSU + ESPP + ISO + NSO + 4-year projection grid in one Notion</tspan><tspan x="80" dy="34">workspace.</tspan>
  </text>

  <!-- decorative chart — bigger, dual-stroke, anchored to product accent -->
  <g transform="translate(840, 380)" opacity="0.95">
    <!-- subtle baseline grid behind chart -->
    <line x1="0" y1="200" x2="320" y2="200" stroke="rgba(255,255,255,0.08)" stroke-width="1"/>
    <line x1="0" y1="100" x2="320" y2="100" stroke="rgba(255,255,255,0.05)" stroke-width="1" stroke-dasharray="3 5"/>
    <!-- area fill -->
    <path d="M0 200 L40 168 L80 180 L120 122 L160 138 L200 78 L240 64 L280 22 L320 18 L320 200 Z"
          fill="#60a5fa" fill-opacity="0.08"/>
    <!-- line -->
    <path d="M0 200 L40 168 L80 180 L120 122 L160 138 L200 78 L240 64 L280 22 L320 18"
          stroke="#60a5fa" stroke-width="5" fill="none" stroke-linecap="round" stroke-linejoin="round" filter="url(#softShadow)"/>
    <!-- endpoint -->
    <circle cx="320" cy="18" r="22" fill="#60a5fa" fill-opacity="0.28"/>
    <circle cx="320" cy="18" r="12" fill="#60a5fa"/>
    <circle cx="320" cy="18" r="4" fill="#ffffff"/>
  </g>

  <!-- footer mark with separator -->
  <line x1="80" y1="655" x2="200" y2="655" stroke="rgba(255,255,255,0.18)" stroke-width="1"/>
  <text x="80" y="688" font-family="-apple-system, BlinkMacSystemFont, 'Segoe UI', Roboto, sans-serif"
        font-size="14" font-weight="600" fill="rgba(255,255,255,0.6)" letter-spacing="0.8">mathstub.com</text>
  <text x="172" y="688" font-family="-apple-system, BlinkMacSystemFont, 'Segoe UI', Roboto, sans-serif"
        font-size="14" font-weight="400" fill="rgba(255,255,255,0.42)" letter-spacing="0.8">free tax calculators for tech workers</text>
</svg>